<svg width="46" height="46" viewBox="0 0 46 46" fill="none" xmlns="http://www.w3.org/2000/svg">
<g id="001-facebook">
<path id="Vector" d="M23 44.9727C35.1352 44.9727 44.9727 35.1352 44.9727 23C44.9727 10.8648 35.1352 1.02734 23 1.02734C10.8648 1.02734 1.02734 10.8648 1.02734 23C1.02734 35.1352 10.8648 44.9727 23 44.9727Z" fill="#1877F2"/>
<path id="Vector_2" opacity="0.49" d="M43.0117 32.0853C43.0656 31.8677 43.1558 31.6607 43.2785 31.4731C44.4002 28.7892 44.9761 25.9088 44.9726 23C44.9726 22.8428 44.97 22.6862 44.9667 22.5298L30.7353 8.29844C29.3767 8.1543 28.0112 8.0845 26.645 8.08935C22.5973 8.08935 19.8271 10.5591 19.8271 15.0968V19.0098H15.2646V24.3271L19.8271 28.8887V37.9106L26.5947 44.6782C30.154 44.0863 33.5131 42.6281 36.376 40.4321C39.2389 38.2361 41.5177 35.3696 43.0117 32.0853Z" fill="url(#paint0_linear_220_67)"/>
<path id="Vector_3" d="M25.3155 37.9106V24.3271H29.8946L30.5806 19.0098H25.3155V15.6234C25.3155 14.0875 25.7418 13.041 27.9441 13.041H30.7352V8.29835C29.3766 8.1543 28.0111 8.08453 26.6449 8.08934C22.5972 8.08934 19.827 10.5591 19.827 15.0968V19.0098H15.2646V24.3271H19.8271V37.9106H25.3155Z" fill="white"/>
</g>
<defs>
<linearGradient id="paint0_linear_220_67" x1="16.893" y1="14.7164" x2="50.2795" y2="48.1029" gradientUnits="userSpaceOnUse">
<stop stop-color="#1D1D1B"/>
<stop offset="0.369" stop-color="#1D1D1B" stop-opacity="0.856"/>
<stop offset="0.75" stop-color="#1D1D1B" stop-opacity="0.429"/>
<stop offset="1" stop-color="#1D1D1B" stop-opacity="0"/>
</linearGradient>
</defs>
</svg>
