<svg width="45" height="46" viewBox="0 0 45 46" fill="none" xmlns="http://www.w3.org/2000/svg">
<g id="002-instagram">
<path id="Vector" d="M22.5 44.9727C34.6352 44.9727 44.4727 35.1352 44.4727 23C44.4727 10.8648 34.6352 1.02734 22.5 1.02734C10.3648 1.02734 0.527344 10.8648 0.527344 23C0.527344 35.1352 10.3648 44.9727 22.5 44.9727Z" fill="url(#paint0_linear_220_58)"/>
<path id="Vector_2" opacity="0.49" d="M44.4629 22.3626L33.8606 11.7602C32.3235 10.2397 30.2537 9.67317 28.1446 9.56885H16.8556C14.7462 9.67317 12.6768 10.2395 11.1396 11.7602C9.61721 13.2665 9.03027 15.3265 8.9248 17.4155V28.5846C9.03027 30.6736 9.61729 32.7336 11.1396 34.2397L21.8627 44.9628C22.0745 44.9688 22.2869 44.9727 22.5001 44.9727C34.6353 44.9727 44.4728 35.1352 44.4728 23C44.4728 22.7867 44.4689 22.5744 44.4629 22.3626ZM16.9982 33.8863C15.5672 33.8471 13.945 33.4908 12.9255 32.4019C11.8661 31.2698 11.4716 29.9022 11.4251 28.3724C11.4251 28.3724 11.3537 20.3129 11.4251 17.6275C11.4657 16.0977 11.8661 14.7301 12.9255 13.5982C13.945 12.5089 15.5672 12.153 16.9982 12.1137C19.7479 12.0382 25.2516 12.0382 28.0014 12.1137C29.4323 12.153 31.0545 12.5092 32.0741 13.5982C33.1335 14.7301 33.5338 16.0977 33.5744 17.6275V17.763L30.6942 14.8824C30.5613 14.7495 30.4037 14.6442 30.2301 14.5723C30.0566 14.5004 29.8706 14.4634 29.6827 14.4634C29.4949 14.4634 29.3089 14.5004 29.1353 14.5723C28.9618 14.6441 28.8041 14.7495 28.6712 14.8823C28.5384 15.0151 28.433 15.1728 28.3611 15.3464C28.2893 15.5199 28.2523 15.7059 28.2523 15.8938C28.2522 16.2732 28.4029 16.637 28.6712 16.9053L33.5748 21.8088V23.9601L27.5574 17.9427C26.2146 16.6088 24.3978 15.8615 22.5051 15.8646C20.6123 15.8677 18.798 16.621 17.4596 17.9594C16.1212 19.2978 15.3679 21.1121 15.3648 23.0049C15.3617 24.8976 16.1089 26.7145 17.4429 28.0573L23.3274 33.9419C21.0017 33.9476 18.5575 33.9291 16.9982 33.8863Z" fill="url(#paint1_linear_220_58)"/>
<g id="Group">
<path id="Vector_3" d="M36.0755 17.4155C35.9701 15.3265 35.383 13.2665 33.8607 11.7602C32.3236 10.2397 30.2538 9.67317 28.1447 9.56885H16.8556C14.7462 9.67317 12.6768 10.2395 11.1396 11.7602C9.61721 13.2665 9.03027 15.3265 8.9248 17.4155V28.5845C9.03027 30.6736 9.61729 32.7336 11.1396 34.2397C12.6768 35.7603 14.7465 36.3268 16.8556 36.4312H28.1446C30.254 36.3268 32.3235 35.7606 33.8606 34.2397C35.383 32.7336 35.97 30.6736 36.0754 28.5845L36.0755 17.4155ZM11.4259 17.6276C11.4665 16.0977 11.8669 14.7301 12.9263 13.5982C13.9458 12.5089 15.568 12.153 16.999 12.1137C19.7487 12.0383 25.2524 12.0383 28.0022 12.1137C29.4331 12.153 31.0553 12.5092 32.0748 13.5982C33.1343 14.7301 33.5346 16.0977 33.5752 17.6276V28.3724C33.5346 29.9023 33.1343 31.2699 32.0748 32.4019C31.0553 33.4912 29.4331 33.8471 28.0022 33.8863C25.2524 33.9618 19.7487 33.9618 16.999 33.8863C15.568 33.8471 13.9458 33.4908 12.9263 32.4019C11.8669 31.2699 11.4724 29.9022 11.4259 28.3724C11.4259 28.3724 11.3541 20.3129 11.4259 17.6276Z" fill="white"/>
<path id="Vector_4" d="M29.6829 17.3242C30.4729 17.3242 31.1133 16.6838 31.1133 15.8938C31.1133 15.1038 30.4729 14.4634 29.6829 14.4634C28.8929 14.4634 28.2524 15.1038 28.2524 15.8938C28.2524 16.6838 28.8929 17.3242 29.6829 17.3242Z" fill="white"/>
<path id="Vector_5" d="M22.5002 15.8478C21.0857 15.8478 19.7029 16.2673 18.5268 17.0532C17.3506 17.8391 16.4339 18.9561 15.8926 20.2629C15.3512 21.5698 15.2096 23.0078 15.4856 24.3952C15.7615 25.7826 16.4427 27.057 17.4429 28.0572C18.4431 29.0574 19.7175 29.7386 21.1049 30.0146C22.4923 30.2906 23.9303 30.149 25.2372 29.6076C26.5441 29.0663 27.6611 28.1496 28.447 26.9735C29.2329 25.7974 29.6523 24.4146 29.6523 23C29.6524 22.0608 29.4674 21.1308 29.108 20.263C28.7485 19.3953 28.2217 18.6068 27.5576 17.9427C26.8934 17.2785 26.105 16.7517 25.2373 16.3923C24.3695 16.0328 23.4395 15.8478 22.5002 15.8478ZM22.5002 27.6143C21.5876 27.6143 20.6955 27.3437 19.9367 26.8366C19.1779 26.3296 18.5865 25.609 18.2372 24.7658C17.888 23.9227 17.7966 22.9949 17.9747 22.0998C18.1527 21.2048 18.5922 20.3826 19.2375 19.7373C19.8828 19.0919 20.705 18.6525 21.6 18.4744C22.4951 18.2964 23.4229 18.3878 24.266 18.737C25.1092 19.0863 25.8298 19.6777 26.3369 20.4365C26.8439 21.1953 27.1145 22.0874 27.1145 23C27.1145 24.2238 26.6284 25.3975 25.763 26.2628C24.8977 27.1281 23.724 27.6143 22.5002 27.6143Z" fill="white"/>
</g>
</g>
<defs>
<linearGradient id="paint0_linear_220_58" x1="6.96296" y1="38.537" x2="38.037" y2="7.46296" gradientUnits="userSpaceOnUse">
<stop stop-color="#D6B43D"/>
<stop offset="0.051" stop-color="#DBA93F"/>
<stop offset="0.143" stop-color="#E88A45"/>
<stop offset="0.164" stop-color="#EB8246"/>
<stop offset="0.211" stop-color="#E7774D"/>
<stop offset="0.294" stop-color="#DD5860"/>
<stop offset="0.31" stop-color="#DB5164"/>
<stop offset="0.464" stop-color="#D2466C"/>
<stop offset="0.567" stop-color="#C93B73"/>
<stop offset="0.607" stop-color="#CB3179"/>
<stop offset="0.733" stop-color="#A23394"/>
<stop offset="0.856" stop-color="#7F35AB"/>
<stop offset="0.91" stop-color="#7D35AB"/>
<stop offset="0.94" stop-color="#7537AA"/>
<stop offset="0.964" stop-color="#673AA9"/>
<stop offset="0.985" stop-color="#533DA8"/>
<stop offset="1" stop-color="#4041A6"/>
</linearGradient>
<linearGradient id="paint1_linear_220_58" x1="11.1999" y1="11.6998" x2="38.0371" y2="38.5371" gradientUnits="userSpaceOnUse">
<stop stop-color="#1D1D1B"/>
<stop offset="0.369" stop-color="#1D1D1B" stop-opacity="0.856"/>
<stop offset="0.75" stop-color="#1D1D1B" stop-opacity="0.429"/>
<stop offset="1" stop-color="#1D1D1B" stop-opacity="0"/>
</linearGradient>
</defs>
</svg>
