<svg width="46" height="46" viewBox="0 0 46 46" fill="none" xmlns="http://www.w3.org/2000/svg">
<g id="003-twitter">
<path id="Vector" d="M23 44.9727C35.1352 44.9727 44.9727 35.1352 44.9727 23C44.9727 10.8648 35.1352 1.02734 23 1.02734C10.8648 1.02734 1.02734 10.8648 1.02734 23C1.02734 35.1352 10.8648 44.9727 23 44.9727Z" fill="#03A9F4"/>
<path id="Vector_2" opacity="0.49" d="M44.9728 23C44.973 21.6404 44.8476 20.2838 44.5983 18.9473L37.2709 11.6197C37.2709 11.6197 34.7583 12.8021 33.3515 13.0977C32.2459 11.9153 30.6379 11.2256 28.829 11.2256C24.8408 11.2256 22.0145 14.7705 22.7992 18.6157C17.674 18.32 13.0509 15.9552 10.0363 12.408C9.51396 13.3059 9.23669 14.3252 9.23228 15.364C9.23228 17.4331 10.3378 19.3053 11.9457 20.2906C10.9537 20.2873 9.98114 20.0149 9.13173 19.5024C9.11292 22.3743 11.2199 24.9178 14.0562 25.4144C13.1567 25.5908 12.1489 25.7351 11.2422 25.5129C11.6656 26.7214 12.4537 27.7687 13.4979 28.51C14.542 29.2513 15.7906 29.6501 17.0712 29.6513C14.6054 31.4931 11.0217 32.7219 7.92578 32.1145L20.6595 44.8485C21.437 44.931 22.2183 44.9725 23.0002 44.9727C35.1353 44.9727 44.9728 35.1351 44.9728 23Z" fill="url(#paint0_linear_220_101)"/>
<path id="Vector_3" fill-rule="evenodd" clip-rule="evenodd" d="M33.3515 13.0977C32.2459 11.9153 30.6379 11.2256 28.829 11.2256C24.8408 11.2256 22.0145 14.7705 22.7992 18.6156C17.674 18.32 13.0509 15.9552 10.0363 12.408C9.51396 13.3059 9.23669 14.3252 9.23228 15.364C9.23228 17.4331 10.3378 19.3053 11.9457 20.2906C10.9537 20.2873 9.98114 20.0149 9.13173 19.5024C9.11292 22.3743 11.2199 24.9178 14.0562 25.4144C13.1567 25.5908 12.1489 25.7351 11.2422 25.5129C11.6656 26.7214 12.4537 27.7687 13.4979 28.51C14.542 29.2513 15.7906 29.6501 17.0712 29.6513C14.6054 31.4931 11.0217 32.7219 7.92578 32.1145C13.9604 35.84 22.208 35.6775 27.9611 31.4656C32.5998 28.0696 34.9596 22.6975 34.9596 17.039C36.1405 16.177 37.1899 15.1481 38.0751 13.9845C36.9695 14.4772 35.7636 14.7728 34.5577 14.9699C35.7636 14.1816 36.7686 13.0978 37.2711 11.6197C37.2708 11.6197 34.7583 12.8021 33.3515 13.0977Z" fill="white"/>
</g>
<defs>
<linearGradient id="paint0_linear_220_101" x1="11.5876" y1="10.8565" x2="38.9027" y2="38.1716" gradientUnits="userSpaceOnUse">
<stop stop-color="#1D1D1B"/>
<stop offset="0.369" stop-color="#1D1D1B" stop-opacity="0.856"/>
<stop offset="0.75" stop-color="#1D1D1B" stop-opacity="0.429"/>
<stop offset="1" stop-color="#1D1D1B" stop-opacity="0"/>
</linearGradient>
</defs>
</svg>
