<svg width="46" height="46" viewBox="0 0 46 46" fill="none" xmlns="http://www.w3.org/2000/svg">
<g id="005-linkedin">
<path id="Vector" d="M23 44.9727C35.1352 44.9727 44.9727 35.1352 44.9727 23C44.9727 10.8648 35.1352 1.02734 23 1.02734C10.8648 1.02734 1.02734 10.8648 1.02734 23C1.02734 35.1352 10.8648 44.9727 23 44.9727Z" fill="#0274B3"/>
<path id="Vector_2" opacity="0.49" d="M43.9846 29.5347L34.3157 19.8658C33.3137 18.8582 31.8004 18.2712 29.5432 18.2712C28.0843 18.2712 26.6639 19.0106 25.4811 19.9499L24.2433 18.7056H22.9648L15.0488 10.7896L10.7321 15.1062L14.1633 18.5375H10.0806V36.1045L18.4829 44.5069C19.9686 44.8171 21.4823 44.9732 23 44.9727C32.8595 44.9727 41.2021 38.4787 43.9846 29.5347Z" fill="url(#paint0_linear_220_83)"/>
<g id="Group">
<path id="Vector_3" d="M12.8907 16.0001C14.5765 16.0001 15.9431 14.6335 15.9431 12.9477C15.9431 11.262 14.5765 9.89539 12.8907 9.89539C11.205 9.89539 9.83838 11.262 9.83838 12.9477C9.83838 14.6335 11.205 16.0001 12.8907 16.0001Z" fill="white"/>
<path id="Vector_4" fill-rule="evenodd" clip-rule="evenodd" d="M29.5437 18.2715C35.135 18.2715 36.1619 21.875 36.1619 26.5508L36.1549 36.1054H30.6397V27.6357C30.6397 25.6135 30.5981 23.0281 27.7678 23.0281C24.8959 23.0281 24.4588 25.2199 24.4588 27.4865V36.1045H18.9438V18.7055H24.2437V21.0806C25.588 19.6812 27.5285 18.2715 29.5437 18.2715Z" fill="white"/>
<path id="Vector_5" d="M10.0806 18.5374H15.7007V36.1046H10.0806V18.5374Z" fill="white"/>
</g>
</g>
<defs>
<linearGradient id="paint0_linear_220_83" x1="10.0257" y1="15.8128" x2="35.6435" y2="41.4305" gradientUnits="userSpaceOnUse">
<stop stop-color="#1D1D1B"/>
<stop offset="0.369" stop-color="#1D1D1B" stop-opacity="0.856"/>
<stop offset="0.75" stop-color="#1D1D1B" stop-opacity="0.429"/>
<stop offset="1" stop-color="#1D1D1B" stop-opacity="0"/>
</linearGradient>
</defs>
</svg>
