<svg width="45" height="46" viewBox="0 0 45 46" fill="none" xmlns="http://www.w3.org/2000/svg">
<g id="008-tik tok">
<path id="Vector" d="M22.5 44.9727C34.6352 44.9727 44.4727 35.1352 44.4727 23C44.4727 10.8648 34.6352 1.02734 22.5 1.02734C10.3648 1.02734 0.527344 10.8648 0.527344 23C0.527344 35.1352 10.3648 44.9727 22.5 44.9727Z" fill="#CCFFFF"/>
<path id="Vector_2" opacity="0.49" d="M44.4727 23C44.4727 22.9763 44.472 22.9527 44.4719 22.929L29.0984 7.58242C28.9246 7.4096 28.6894 7.3128 28.4443 7.3133H23.4906C23.3695 7.31292 23.2496 7.33639 23.1376 7.38238C23.0255 7.42836 22.9237 7.49596 22.8378 7.58132C22.7519 7.66667 22.6837 7.7681 22.637 7.87983C22.5903 7.99155 22.5661 8.11138 22.5657 8.23246V21.2911L19.6866 18.4121C19.5129 18.2393 19.2777 18.1424 19.0327 18.1428C13.3335 18.1428 8.69678 22.7508 8.69678 28.4151C8.69665 29.7655 8.96446 31.1025 9.4847 32.3487C10.0049 33.5949 10.7673 34.7254 11.7275 35.6749L20.9718 44.9189C21.4768 44.954 21.9862 44.9727 22.5001 44.9727C34.6352 44.9727 44.4727 35.1352 44.4727 23Z" fill="url(#paint0_linear_220_92)"/>
<path id="Vector_3" fill-rule="evenodd" clip-rule="evenodd" d="M30.0501 8.91938C30.1712 8.91894 30.2912 8.94237 30.4032 8.98834C30.5153 9.03431 30.6172 9.1019 30.7031 9.18727C30.7889 9.27263 30.8572 9.37409 30.9038 9.48584C30.9505 9.59759 30.9747 9.71744 30.975 9.83854C30.975 13.1314 33.6708 15.8104 36.9843 15.8104C37.2289 15.8097 37.4637 15.9061 37.6371 16.0785C37.8106 16.2509 37.9084 16.4851 37.9092 16.7296V21.6525C37.9088 21.7736 37.8846 21.8935 37.8379 22.0052C37.7912 22.1169 37.723 22.2184 37.6371 22.3037C37.5512 22.3891 37.4494 22.4567 37.3373 22.5026C37.2253 22.5486 37.1053 22.5721 36.9842 22.5717C34.8897 22.5765 32.8261 22.0667 30.9749 21.087V30.021C30.9749 35.6848 26.3375 40.2927 20.6384 40.2927C14.9393 40.2927 10.3025 35.6848 10.3025 30.021C10.3025 24.3573 14.9392 19.7486 20.6384 19.7486C20.8829 19.7481 21.1176 19.8446 21.291 20.0169C21.4644 20.1893 21.5623 20.4233 21.5633 20.6678V25.5907C21.5629 25.7118 21.5387 25.8316 21.492 25.9434C21.4454 26.0551 21.3771 26.1565 21.2912 26.2419C21.2054 26.3272 21.1035 26.3948 20.9915 26.4408C20.8795 26.4868 20.7595 26.5103 20.6384 26.5099C19.9449 26.5142 19.2682 26.7239 18.6937 27.1123C18.1192 27.5008 17.6726 28.0506 17.4102 28.6926C17.1478 29.3346 17.0814 30.0399 17.2193 30.7195C17.3573 31.3992 17.6934 32.0228 18.1854 32.5116C18.6773 33.0005 19.303 33.3327 19.9835 33.4664C20.664 33.6001 21.3689 33.5293 22.0092 33.2629C22.6495 32.9965 23.1966 32.5464 23.5814 31.9695C23.9663 31.3926 24.1716 30.7146 24.1716 30.021V9.83854C24.172 9.71745 24.1962 9.59763 24.2429 9.4859C24.2896 9.37418 24.3579 9.27274 24.4437 9.18739C24.5296 9.10204 24.6315 9.03444 24.7435 8.98846C24.8555 8.94247 24.9755 8.919 25.0966 8.91938H30.0501Z" fill="#FF0B53"/>
<path id="Vector_4" fill-rule="evenodd" clip-rule="evenodd" d="M28.4442 7.3133C28.5653 7.31286 28.6853 7.33629 28.7974 7.38226C28.9094 7.42823 29.0113 7.49582 29.0972 7.58119C29.1831 7.66655 29.2513 7.76801 29.2979 7.87976C29.3446 7.99151 29.3688 8.11136 29.3691 8.23246C29.3691 11.5255 32.0648 14.2045 35.3784 14.2045C35.4994 14.2041 35.6194 14.2275 35.7314 14.2735C35.8434 14.3195 35.9453 14.3871 36.0312 14.4725C36.1171 14.5578 36.1853 14.6593 36.232 14.771C36.2786 14.8827 36.3029 15.0025 36.3032 15.1236V20.0469C36.3029 20.168 36.2786 20.2878 36.232 20.3995C36.1853 20.5112 36.117 20.6127 36.0312 20.698C35.9453 20.7834 35.8434 20.8509 35.7314 20.8969C35.6194 20.9429 35.4994 20.9664 35.3784 20.966C33.2839 20.9708 31.2203 20.461 29.3691 19.4813V28.415C29.3691 34.0787 24.7317 38.6867 19.0326 38.6867C13.3335 38.6867 8.69678 34.0787 8.69678 28.415C8.69678 22.7512 13.3334 18.1427 19.0327 18.1427C19.2772 18.142 19.512 18.2384 19.6854 18.4108C19.8589 18.5831 19.9568 18.8173 19.9576 19.0618V23.9844C19.9572 24.1055 19.933 24.2253 19.8863 24.337C19.8396 24.4487 19.7714 24.5502 19.6855 24.6355C19.5996 24.7209 19.4978 24.7885 19.3858 24.8345C19.2738 24.8805 19.1538 24.9039 19.0327 24.9036C18.3392 24.9079 17.6626 25.1175 17.0881 25.506C16.5136 25.8944 16.067 26.4443 15.8046 27.0863C15.5422 27.7282 15.4759 28.4335 15.6138 29.1131C15.7518 29.7928 16.0879 30.4163 16.5798 30.9052C17.0718 31.394 17.6974 31.7262 18.3779 31.8599C19.0584 31.9936 19.7632 31.9228 20.4035 31.6564C21.0438 31.39 21.5909 30.9399 21.9757 30.363C22.3606 29.7861 22.5659 29.1081 22.5659 28.4146V8.23246C22.5667 7.98797 22.6645 7.75378 22.8379 7.58141C23.0113 7.40904 23.246 7.3126 23.4905 7.3133H28.4442Z" fill="#00F0E9"/>
<path id="Vector_5" d="M29.369 28.4149V19.4809C31.2202 20.4606 33.2838 20.9705 35.3783 20.9656C35.6228 20.9664 35.8575 20.87 36.031 20.6977C36.2044 20.5255 36.3023 20.2913 36.3032 20.0469V15.7711C35.44 15.6733 34.6082 15.3898 33.8649 14.9402C33.1216 14.4906 32.4844 13.8855 31.997 13.1663C31.286 12.6859 30.6868 12.0579 30.2404 11.325C29.7939 10.5921 29.5107 9.7716 29.41 8.91938H25.0966C24.9755 8.91898 24.8555 8.94245 24.7435 8.98843C24.6315 9.03441 24.5296 9.10201 24.4437 9.18736C24.3578 9.27272 24.2896 9.37416 24.2429 9.48589C24.1962 9.59762 24.172 9.71745 24.1716 9.83854V30.021C24.1659 30.8171 23.8917 31.588 23.3935 32.2089C22.8952 32.8298 22.202 33.2644 21.426 33.4424C20.6501 33.6204 19.8368 33.5314 19.1177 33.1897C18.3986 32.848 17.8159 32.2737 17.4638 31.5597C16.7503 31.21 16.1767 30.6284 15.8369 29.9101C15.4971 29.1918 15.4114 28.3794 15.5937 27.606C15.776 26.8326 16.2156 26.1441 16.8404 25.6531C17.4652 25.1622 18.2382 24.898 19.0327 24.9039C19.1538 24.9042 19.2738 24.8807 19.3858 24.8347C19.4978 24.7887 19.5997 24.7211 19.6856 24.6357C19.7714 24.5503 19.8396 24.4488 19.8863 24.3371C19.9329 24.2253 19.9571 24.1055 19.9574 23.9844V19.7716C14.5747 20.1214 10.3027 24.5842 10.3027 30.021C10.3013 32.345 11.0949 34.5996 12.5518 36.4102C14.389 37.8864 16.6758 38.6896 19.0326 38.6866C24.7317 38.6867 29.369 34.0787 29.369 28.4149Z" fill="#1B1633"/>
</g>
<defs>
<linearGradient id="paint0_linear_220_92" x1="14.6085" y1="15.8107" x2="37.686" y2="38.8882" gradientUnits="userSpaceOnUse">
<stop stop-color="#1D1D1B"/>
<stop offset="0.369" stop-color="#1D1D1B" stop-opacity="0.856"/>
<stop offset="0.75" stop-color="#1D1D1B" stop-opacity="0.429"/>
<stop offset="1" stop-color="#1D1D1B" stop-opacity="0"/>
</linearGradient>
</defs>
</svg>
