<svg width="45" height="46" viewBox="0 0 45 46" fill="none" xmlns="http://www.w3.org/2000/svg">
<g id="010-telegram">
<path id="Vector" d="M22.5 44.9727C34.6352 44.9727 44.4727 35.1352 44.4727 23C44.4727 10.8648 34.6352 1.02734 22.5 1.02734C10.3648 1.02734 0.527344 10.8648 0.527344 23C0.527344 35.1352 10.3648 44.9727 22.5 44.9727Z" fill="#005FAB"/>
<path id="Vector_2" opacity="0.49" d="M44.4727 23C44.4737 21.0722 44.2213 19.1527 43.722 17.2907L36.3525 9.92093C36.3103 9.88075 36.257 9.85429 36.1995 9.84503C36.1419 9.83578 36.083 9.84416 36.0303 9.86907C33.3594 10.824 20.8027 15.36 4.18754 21.4647C4.11236 21.4902 4.05 21.5438 4.0136 21.6143C3.97719 21.6848 3.9696 21.7667 3.99242 21.8427L26.6661 44.5765C36.8087 42.6294 44.4727 33.7105 44.4727 23Z" fill="url(#paint0_linear_220_107)"/>
<path id="Vector_3" fill-rule="evenodd" clip-rule="evenodd" d="M36.0303 9.86911C36.273 9.7668 36.4812 9.97141 36.4465 10.2101L30.9659 35.9252C30.9534 35.9746 30.9288 36.0201 30.8944 36.0576C30.86 36.0952 30.8169 36.1237 30.7689 36.1405C30.7208 36.1574 30.6694 36.1621 30.6191 36.1543C30.5687 36.1465 30.5211 36.1263 30.4805 36.0957L21.8435 29.9568L17.022 34.5271C16.981 34.5593 16.9331 34.5816 16.8821 34.5922C16.8311 34.6027 16.7783 34.6014 16.7279 34.5882C16.6775 34.575 16.6309 34.5503 16.5916 34.516C16.5524 34.4817 16.5216 34.4388 16.5017 34.3907L13.2062 24.807L4.18758 22.0445C4.12681 22.0241 4.07399 21.9851 4.03656 21.9331C3.99914 21.8811 3.979 21.8186 3.979 21.7545C3.979 21.6904 3.99914 21.6279 4.03656 21.5758C4.07399 21.5238 4.12681 21.4848 4.18758 21.4644C20.8027 15.3597 33.3594 10.8237 36.0304 9.86876L36.0303 9.86911ZM30.2722 14.5415C30.2378 14.5368 25.1042 17.7473 14.9058 24.1249L17.0565 31.0824L17.5078 26.6826C26.2833 18.8726 30.6768 14.9506 30.6884 14.9166C30.8967 14.7119 30.4111 14.5601 30.2722 14.5415Z" fill="white"/>
</g>
<defs>
<linearGradient id="paint0_linear_220_107" x1="14.9345" y1="10.6736" x2="40.4168" y2="36.156" gradientUnits="userSpaceOnUse">
<stop stop-color="#1D1D1B"/>
<stop offset="0.369" stop-color="#1D1D1B" stop-opacity="0.856"/>
<stop offset="0.75" stop-color="#1D1D1B" stop-opacity="0.429"/>
<stop offset="1" stop-color="#1D1D1B" stop-opacity="0"/>
</linearGradient>
</defs>
</svg>
