<svg width="45" height="46" viewBox="0 0 45 46" fill="none" xmlns="http://www.w3.org/2000/svg">
<g id="013-spotify">
<path id="Vector" d="M22.5 44.9727C34.6352 44.9727 44.4727 35.1352 44.4727 23C44.4727 10.8648 34.6352 1.02734 22.5 1.02734C10.3648 1.02734 0.527344 10.8648 0.527344 23C0.527344 35.1352 10.3648 44.9727 22.5 44.9727Z" fill="#2DB93E"/>
<path id="Vector_2" opacity="0.49" d="M44.4312 24.3343L37.3785 17.2815C37.231 17.1341 37.0645 17.0071 36.8835 16.9036C31.9685 14.0999 25.2486 12.7871 18.835 12.7871C15.3597 12.7871 11.8532 13.135 8.50541 14.1001C8.22803 14.1787 7.96964 14.3132 7.74613 14.4953C7.52262 14.6774 7.33869 14.9033 7.20566 15.1591C7.07263 15.4149 6.9933 15.6952 6.97253 15.9827C6.95177 16.2703 6.99002 16.5591 7.08493 16.8313C7.17742 17.1174 7.33542 17.3779 7.54635 17.5921L11.0743 21.1191C10.6805 21.2144 10.2874 21.317 9.89514 21.4268C9.65022 21.4904 9.42125 21.6044 9.22281 21.7614C9.02437 21.9184 8.86082 22.1151 8.74258 22.3388C8.62434 22.5626 8.55401 22.8085 8.53605 23.0609C8.5181 23.3133 8.55292 23.5667 8.6383 23.8049C8.71681 24.0505 8.85058 24.2748 9.02933 24.4606L12.4755 27.9068C11.7733 28.0226 11.0741 28.1544 10.3781 28.3023C9.53602 28.4693 8.96833 29.2357 9.22128 30.1026C9.2779 30.3111 9.3859 30.5019 9.5354 30.6578L23.8096 44.9328C34.8933 44.281 43.7673 35.4146 44.4312 24.3343Z" fill="url(#paint0_linear_220_74)"/>
<g id="Group">
<path id="Vector_3" fill-rule="evenodd" clip-rule="evenodd" d="M18.835 12.7871C25.2485 12.7871 31.9684 14.1001 36.8834 16.904C37.8655 17.4655 38.3376 18.6672 37.818 19.7262C37.2591 20.8654 35.8844 21.1049 34.8403 20.5202C28.5857 16.8595 17.3934 15.9805 10.1518 17.9611C8.94767 18.2981 7.559 18.2126 7.08545 16.8313C6.99052 16.5591 6.95226 16.2703 6.97301 15.9827C6.99377 15.6952 7.07309 15.4149 7.20611 15.1591C7.33914 14.9033 7.52306 14.6774 7.74657 14.4953C7.97008 14.3132 8.22846 14.1787 8.50585 14.1001C11.8533 13.1348 15.3597 12.7871 18.835 12.7871Z" fill="white"/>
<path id="Vector_4" fill-rule="evenodd" clip-rule="evenodd" d="M18.4345 20.2332C24.0977 20.2332 29.5804 21.6543 33.8899 24.2349C34.7833 24.7637 35.2316 26.0115 34.6063 26.932C34.0985 27.679 32.9883 27.7992 32.1075 27.3157C26.5363 24.2583 18.5135 22.7454 11.2709 24.7237C10.2257 25.0084 9.06413 25.0443 8.63734 23.8051C8.55197 23.5669 8.51715 23.3135 8.53511 23.0611C8.55307 22.8087 8.62341 22.5628 8.74165 22.339C8.85989 22.1153 9.02344 21.9187 9.22187 21.7616C9.4203 21.6046 9.64926 21.4906 9.89417 21.4269C12.6724 20.6375 15.5463 20.2358 18.4345 20.2332Z" fill="white"/>
<path id="Vector_5" fill-rule="evenodd" clip-rule="evenodd" d="M18.5935 27.3695C23.1221 27.3519 27.5299 28.2593 31.5103 30.5406C32.0516 30.8714 32.374 31.1691 32.374 31.952C32.355 33.2282 30.9747 33.4813 30.0592 32.9555C24.3152 29.642 17.5016 29.5118 11.1825 30.9718C10.3791 31.1574 9.48669 31.0147 9.22056 30.1025C8.96761 29.2355 9.5353 28.4688 10.3775 28.3021C13.0771 27.7313 15.8316 27.3801 18.5935 27.3695Z" fill="white"/>
</g>
</g>
<defs>
<linearGradient id="paint0_linear_220_74" x1="10.8552" y1="11.3682" x2="38.0295" y2="38.5426" gradientUnits="userSpaceOnUse">
<stop stop-color="#1D1D1B"/>
<stop offset="0.369" stop-color="#1D1D1B" stop-opacity="0.856"/>
<stop offset="0.75" stop-color="#1D1D1B" stop-opacity="0.429"/>
<stop offset="1" stop-color="#1D1D1B" stop-opacity="0"/>
</linearGradient>
</defs>
</svg>
