<svg width="496" height="496" viewBox="0 0 496 496" fill="none" xmlns="http://www.w3.org/2000/svg">
<g filter="url(#filter0_d_13_540)">
<rect x="16" y="92" width="128" height="128" rx="24" fill="white"/>
</g>
<g clip-path="url(#clip0_13_540)">
<path d="M80 191.156C99.4163 191.156 115.156 175.416 115.156 156C115.156 136.584 99.4163 120.844 80 120.844C60.5837 120.844 44.8438 136.584 44.8438 156C44.8438 175.416 60.5837 191.156 80 191.156Z" fill="url(#paint0_linear_13_540)"/>
<path opacity="0.49" d="M115.14 154.98L98.1768 138.016C95.7174 135.584 92.4058 134.677 89.0312 134.51H70.9688C67.5938 134.677 64.2826 135.583 61.8232 138.016C59.3873 140.426 58.4482 143.722 58.2795 147.065V164.935C58.4482 168.278 59.3875 171.574 61.8232 173.984L78.9802 191.141C79.3189 191.15 79.6588 191.156 80 191.156C99.4162 191.156 115.156 175.416 115.156 156C115.156 155.659 115.15 155.319 115.14 154.98ZM71.1969 173.418C68.9074 173.355 66.3118 172.785 64.6806 171.043C62.9855 169.232 62.3544 167.043 62.28 164.596C62.28 164.596 62.1658 151.701 62.28 147.404C62.3449 144.956 62.9855 142.768 64.6806 140.957C66.3118 139.214 68.9074 138.645 71.1969 138.582C75.5965 138.461 84.4024 138.461 88.802 138.582C91.0915 138.645 93.687 139.215 95.3183 140.957C97.0134 142.768 97.6539 144.956 97.7189 147.404V147.621L93.1105 143.012C92.8979 142.799 92.6456 142.631 92.368 142.516C92.0903 142.401 91.7927 142.341 91.4921 142.341C91.1916 142.341 90.894 142.401 90.6163 142.516C90.3386 142.631 90.0863 142.799 89.8738 143.012C89.6612 143.224 89.4927 143.477 89.3776 143.754C89.2626 144.032 89.2034 144.329 89.2034 144.63C89.2034 145.237 89.4445 145.819 89.8737 146.248L97.7194 154.094V157.536L88.0917 147.908C85.9432 145.774 83.0363 144.578 80.0079 144.583C76.9795 144.588 74.0765 145.794 71.9351 147.935C69.7937 150.076 68.5885 152.979 68.5835 156.008C68.5785 159.036 69.7741 161.943 71.9084 164.092L81.3237 173.507C77.6025 173.516 73.6918 173.486 71.1969 173.418Z" fill="url(#paint1_linear_13_540)"/>
<path d="M101.721 147.065C101.552 143.722 100.613 140.426 98.1769 138.016C95.7175 135.584 92.4059 134.677 89.0314 134.51H70.9688C67.5938 134.677 64.2826 135.583 61.8232 138.016C59.3873 140.426 58.4482 143.722 58.2795 147.065V164.935C58.4482 168.278 59.3875 171.574 61.8232 173.984C64.2826 176.416 67.5942 177.323 70.9688 177.49H89.0312C92.4062 177.323 95.7174 176.417 98.1768 173.984C100.613 171.574 101.552 168.278 101.721 164.935L101.721 147.065ZM62.2812 147.404C62.3462 144.956 62.9868 142.768 64.6819 140.957C66.3131 139.214 68.9086 138.645 71.1981 138.582C75.5977 138.461 84.4037 138.461 88.8033 138.582C91.0928 138.645 93.6883 139.215 95.3195 140.957C97.0146 142.768 97.6552 144.956 97.7202 147.404V164.596C97.6552 167.044 97.0146 169.232 95.3195 171.043C93.6883 172.786 91.0928 173.355 88.8033 173.418C84.4037 173.539 75.5977 173.539 71.1981 173.418C68.9086 173.355 66.3131 172.785 64.6819 171.043C62.9868 169.232 62.3556 167.043 62.2812 164.596C62.2812 164.596 62.1664 151.701 62.2812 147.404Z" fill="white"/>
<path d="M91.4922 146.919C92.7562 146.919 93.7808 145.894 93.7808 144.63C93.7808 143.366 92.7562 142.341 91.4922 142.341C90.2282 142.341 89.2035 143.366 89.2035 144.63C89.2035 145.894 90.2282 146.919 91.4922 146.919Z" fill="white"/>
<path d="M80 144.557C77.7367 144.557 75.5243 145.228 73.6424 146.485C71.7606 147.742 70.2939 149.53 69.4277 151.621C68.5616 153.712 68.335 156.013 68.7765 158.232C69.218 160.452 70.3079 162.491 71.9083 164.092C73.5086 165.692 75.5476 166.782 77.7674 167.223C79.9872 167.665 82.2881 167.438 84.3791 166.572C86.4701 165.706 88.2573 164.239 89.5147 162.358C90.7722 160.476 91.4433 158.263 91.4434 156C91.4434 154.497 91.1474 153.009 90.5723 151.621C89.9973 150.232 89.1543 148.971 88.0917 147.908C87.0291 146.846 85.7676 146.003 84.3792 145.428C82.9908 144.853 81.5028 144.557 80 144.557ZM80 163.383C78.5398 163.383 77.1124 162.95 75.8983 162.139C74.6842 161.327 73.738 160.174 73.1792 158.825C72.6204 157.476 72.4742 155.992 72.7591 154.56C73.0439 153.128 73.7471 151.812 74.7796 150.78C75.8121 149.747 77.1276 149.044 78.5597 148.759C79.9918 148.474 81.4763 148.62 82.8253 149.179C84.1743 149.738 85.3274 150.684 86.1386 151.898C86.9498 153.112 87.3828 154.54 87.3828 156C87.3828 157.958 86.605 159.836 85.2204 161.22C83.8359 162.605 81.958 163.383 80 163.383Z" fill="white"/>
</g>
<g filter="url(#filter1_d_13_540)">
<rect x="16" y="260" width="128" height="128" rx="24" fill="white"/>
</g>
<g clip-path="url(#clip1_13_540)">
<path d="M80 359.156C99.4163 359.156 115.156 343.416 115.156 324C115.156 304.584 99.4163 288.844 80 288.844C60.5837 288.844 44.8438 304.584 44.8438 324C44.8438 343.416 60.5837 359.156 80 359.156Z" fill="#1877F2"/>
<path opacity="0.49" d="M112.019 338.537C112.105 338.188 112.249 337.857 112.446 337.557C114.24 333.263 115.162 328.654 115.156 324C115.156 323.748 115.152 323.498 115.147 323.248L92.3766 300.478C90.2028 300.247 88.018 300.135 85.832 300.143C79.3557 300.143 74.9233 304.095 74.9233 311.355V317.616H67.6235V326.123L74.9235 333.422V347.857L85.7516 358.685C91.4464 357.738 96.8209 355.405 101.402 351.891C105.982 348.378 109.628 343.791 112.019 338.537Z" fill="url(#paint2_linear_13_540)"/>
<path d="M83.7048 347.857V326.123H91.0314L92.1291 317.616H83.7048V312.197C83.7048 309.74 84.387 308.066 87.9106 308.066H92.3764V300.477C90.2026 300.247 88.0179 300.135 85.8319 300.143C79.3555 300.143 74.9232 304.095 74.9232 311.355V317.616H67.6235V326.123H74.9235V347.857H83.7048Z" fill="white"/>
</g>
<g filter="url(#filter2_d_13_540)">
<rect x="184" y="8" width="128" height="128" rx="24" fill="white"/>
</g>
<g clip-path="url(#clip2_13_540)">
<path d="M248 107.156C267.416 107.156 283.156 91.4163 283.156 72C283.156 52.5837 267.416 36.8438 248 36.8438C228.584 36.8438 212.844 52.5837 212.844 72C212.844 91.4163 228.584 107.156 248 107.156Z" fill="#2DB93E"/>
<path opacity="0.49" d="M283.09 74.1348L271.806 62.8504C271.569 62.6146 271.303 62.4113 271.014 62.2457C263.15 57.7599 252.398 55.6594 242.136 55.6594C236.575 55.6594 230.965 56.216 225.609 57.7602C225.165 57.8859 224.751 58.1011 224.394 58.3925C224.036 58.6839 223.742 59.0453 223.529 59.4546C223.316 59.8638 223.189 60.3123 223.156 60.7724C223.123 61.2325 223.184 61.6945 223.336 62.1301C223.484 62.5878 223.737 63.0046 224.074 63.3473L229.719 68.9906C229.089 69.1431 228.46 69.3071 227.832 69.4828C227.44 69.5846 227.074 69.767 226.756 70.0183C226.439 70.2695 226.177 70.5841 225.988 70.9421C225.799 71.3001 225.686 71.6935 225.658 72.0974C225.629 72.5013 225.685 72.9067 225.821 73.2878C225.947 73.6807 226.161 74.0396 226.447 74.3369L231.961 79.8508C230.837 80.0361 229.719 80.2471 228.605 80.4836C227.258 80.7508 226.349 81.9771 226.754 83.3642C226.845 83.6977 227.017 84.0031 227.257 84.2525L250.095 107.092C267.829 106.05 282.028 91.8634 283.09 74.1348Z" fill="url(#paint3_linear_13_540)"/>
<path fill-rule="evenodd" clip-rule="evenodd" d="M242.136 55.6594C252.397 55.6594 263.149 57.7602 271.013 62.2464C272.585 63.1448 273.34 65.0675 272.509 66.7618C271.614 68.5846 269.415 68.9678 267.744 68.0323C257.737 62.1752 239.829 60.7688 228.243 63.9377C226.316 64.477 224.094 64.3401 223.337 62.1301C223.185 61.6945 223.124 61.2325 223.157 60.7724C223.19 60.3123 223.317 59.8638 223.53 59.4546C223.743 59.0453 224.037 58.6839 224.394 58.3925C224.752 58.1011 225.165 57.8859 225.609 57.7602C230.965 56.2157 236.575 55.6594 242.136 55.6594Z" fill="white"/>
<path fill-rule="evenodd" clip-rule="evenodd" d="M241.495 67.5731C250.557 67.5731 259.329 69.8469 266.224 73.9758C267.653 74.8219 268.371 76.8184 267.37 78.2911C266.558 79.4864 264.781 79.6787 263.372 78.9051C254.458 74.0133 241.622 71.5926 230.034 74.7579C228.361 75.2134 226.503 75.2708 225.82 73.2881C225.683 72.907 225.628 72.5016 225.656 72.0977C225.685 71.6938 225.798 71.3004 225.987 70.9424C226.176 70.5845 226.438 70.2698 226.755 70.0186C227.073 69.7673 227.439 69.585 227.831 69.4831C232.276 68.22 236.874 67.5772 241.495 67.5731Z" fill="white"/>
<path fill-rule="evenodd" clip-rule="evenodd" d="M241.749 78.9912C248.995 78.9631 256.048 80.4149 262.416 84.0649C263.282 84.5942 263.798 85.0705 263.798 86.3232C263.768 88.3651 261.559 88.7701 260.095 87.9287C250.904 82.6272 240.002 82.4188 229.892 84.7548C228.607 85.0518 227.179 84.8235 226.753 83.3639C226.348 81.9768 227.256 80.7501 228.604 80.4834C232.923 79.57 237.33 79.0082 241.749 78.9912Z" fill="white"/>
</g>
<g filter="url(#filter3_d_13_540)">
<rect x="184" y="176" width="128" height="128" rx="24" fill="white"/>
</g>
<g clip-path="url(#clip3_13_540)">
<path d="M248 275.156C267.416 275.156 283.156 259.416 283.156 240C283.156 220.584 267.416 204.844 248 204.844C228.584 204.844 212.844 220.584 212.844 240C212.844 259.416 228.584 275.156 248 275.156Z" fill="#0274B3"/>
<path opacity="0.49" d="M281.575 250.455L266.105 234.985C264.502 233.373 262.081 232.434 258.469 232.434C256.135 232.434 253.862 233.617 251.97 235.12L249.989 233.129H247.944L235.278 220.463L228.371 227.37L233.861 232.86H227.329V260.967L240.773 274.411C243.15 274.907 245.572 275.157 248 275.156C263.775 275.156 277.123 264.766 281.575 250.455Z" fill="url(#paint4_linear_13_540)"/>
<path d="M231.825 228.8C234.522 228.8 236.709 226.614 236.709 223.916C236.709 221.219 234.522 219.033 231.825 219.033C229.128 219.033 226.941 221.219 226.941 223.916C226.941 226.614 229.128 228.8 231.825 228.8Z" fill="white"/>
<path fill-rule="evenodd" clip-rule="evenodd" d="M258.47 232.434C267.416 232.434 269.059 238.2 269.059 245.681L269.048 260.969H260.224V247.417C260.224 244.182 260.157 240.045 255.628 240.045C251.033 240.045 250.334 243.552 250.334 247.178V260.967H241.51V233.129H249.99V236.929C252.141 234.69 255.246 232.434 258.47 232.434Z" fill="white"/>
<path d="M227.329 232.86H236.321V260.967H227.329V232.86Z" fill="white"/>
</g>
<g filter="url(#filter4_d_13_540)">
<rect x="184" y="344" width="128" height="128" rx="24" fill="white"/>
</g>
<g clip-path="url(#clip4_13_540)">
<path d="M248 443.156C267.416 443.156 283.156 427.416 283.156 408C283.156 388.584 267.416 372.844 248 372.844C228.584 372.844 212.844 388.584 212.844 408C212.844 427.416 228.584 443.156 248 443.156Z" fill="#CCFFFF"/>
<path opacity="0.49" d="M283.156 408C283.156 407.962 283.155 407.924 283.155 407.886L258.557 383.332C258.279 383.055 257.903 382.9 257.511 382.901H249.585C249.391 382.901 249.199 382.938 249.02 383.012C248.841 383.085 248.678 383.194 248.54 383.33C248.403 383.467 248.294 383.629 248.219 383.808C248.144 383.986 248.106 384.178 248.105 384.372V405.266L243.498 400.659C243.221 400.383 242.844 400.228 242.452 400.229C233.333 400.229 225.915 407.601 225.915 416.664C225.914 418.825 226.343 420.964 227.175 422.958C228.008 424.952 229.227 426.761 230.764 428.28L245.555 443.07C246.363 443.126 247.178 443.156 248 443.156C267.416 443.156 283.156 427.416 283.156 408Z" fill="url(#paint5_linear_13_540)"/>
<path fill-rule="evenodd" clip-rule="evenodd" d="M260.08 385.471C260.274 385.47 260.466 385.508 260.645 385.581C260.825 385.655 260.988 385.763 261.125 385.9C261.263 386.036 261.372 386.199 261.446 386.377C261.521 386.556 261.56 386.748 261.56 386.942C261.56 392.21 265.873 396.497 271.175 396.497C271.566 396.496 271.942 396.65 272.22 396.926C272.497 397.201 272.654 397.576 272.655 397.967V405.844C272.654 406.038 272.616 406.23 272.541 406.408C272.466 406.587 272.357 406.749 272.22 406.886C272.082 407.023 271.919 407.131 271.74 407.204C271.561 407.278 271.369 407.315 271.175 407.315C267.824 407.322 264.522 406.507 261.56 404.939V419.234C261.56 428.296 254.14 435.668 245.022 435.668C235.903 435.668 228.484 428.296 228.484 419.234C228.484 410.172 235.903 402.798 245.022 402.798C245.413 402.797 245.788 402.951 246.066 403.227C246.343 403.503 246.5 403.877 246.501 404.269V412.145C246.501 412.339 246.462 412.531 246.387 412.709C246.313 412.888 246.204 413.05 246.066 413.187C245.929 413.324 245.766 413.432 245.587 413.505C245.407 413.579 245.215 413.616 245.022 413.616C243.912 413.623 242.829 413.958 241.91 414.58C240.991 415.201 240.276 416.081 239.856 417.108C239.437 418.135 239.33 419.264 239.551 420.351C239.772 421.439 240.31 422.436 241.097 423.219C241.884 424.001 242.885 424.532 243.974 424.746C245.063 424.96 246.19 424.847 247.215 424.421C248.239 423.994 249.115 423.274 249.73 422.351C250.346 421.428 250.675 420.343 250.675 419.234V386.942C250.675 386.748 250.714 386.556 250.789 386.377C250.864 386.199 250.973 386.036 251.11 385.9C251.248 385.763 251.411 385.655 251.59 385.582C251.769 385.508 251.961 385.47 252.155 385.471H260.08Z" fill="#FF0B53"/>
<path fill-rule="evenodd" clip-rule="evenodd" d="M257.511 382.901C257.705 382.901 257.897 382.938 258.076 383.012C258.255 383.085 258.418 383.193 258.555 383.33C258.693 383.466 258.802 383.629 258.877 383.808C258.951 383.986 258.99 384.178 258.991 384.372C258.991 389.641 263.304 393.927 268.605 393.927C268.799 393.926 268.991 393.964 269.17 394.038C269.349 394.111 269.512 394.219 269.65 394.356C269.787 394.492 269.896 394.655 269.971 394.834C270.046 395.012 270.085 395.204 270.085 395.398V403.275C270.085 403.469 270.046 403.66 269.971 403.839C269.896 404.018 269.787 404.18 269.65 404.317C269.512 404.453 269.349 404.561 269.17 404.635C268.991 404.709 268.799 404.746 268.605 404.746C265.254 404.753 261.953 403.938 258.991 402.37V416.664C258.991 425.726 251.571 433.099 242.452 433.099C233.334 433.099 225.915 425.726 225.915 416.664C225.915 407.602 233.334 400.228 242.452 400.228C242.844 400.227 243.219 400.381 243.497 400.657C243.774 400.933 243.931 401.308 243.932 401.699V409.575C243.932 409.769 243.893 409.96 243.818 410.139C243.743 410.318 243.634 410.48 243.497 410.617C243.359 410.753 243.196 410.862 243.017 410.935C242.838 411.009 242.646 411.046 242.452 411.046C241.343 411.053 240.26 411.388 239.341 412.01C238.422 412.631 237.707 413.511 237.287 414.538C236.868 415.565 236.761 416.694 236.982 417.781C237.203 418.868 237.741 419.866 238.528 420.648C239.315 421.43 240.316 421.962 241.405 422.176C242.493 422.39 243.621 422.276 244.646 421.85C245.67 421.424 246.545 420.704 247.161 419.781C247.777 418.858 248.105 417.773 248.105 416.663V384.372C248.107 383.981 248.263 383.606 248.541 383.33C248.818 383.054 249.194 382.9 249.585 382.901H257.511Z" fill="#00F0E9"/>
<path d="M258.991 416.664V402.369C261.953 403.937 265.254 404.753 268.605 404.745C268.997 404.746 269.372 404.592 269.65 404.316C269.927 404.041 270.084 403.666 270.085 403.275V396.434C268.704 396.277 267.373 395.824 266.184 395.104C264.995 394.385 263.975 393.417 263.195 392.266C262.058 391.497 261.099 390.493 260.385 389.32C259.67 388.147 259.217 386.835 259.056 385.471H252.155C251.961 385.47 251.769 385.508 251.59 385.582C251.41 385.655 251.247 385.763 251.11 385.9C250.973 386.036 250.863 386.199 250.789 386.377C250.714 386.556 250.675 386.748 250.675 386.942V419.234C250.666 420.507 250.227 421.741 249.43 422.734C248.632 423.728 247.523 424.423 246.282 424.708C245.04 424.993 243.739 424.85 242.588 424.303C241.438 423.757 240.506 422.838 239.942 421.695C238.801 421.136 237.883 420.205 237.339 419.056C236.796 417.907 236.658 416.607 236.95 415.37C237.242 414.132 237.945 413.031 238.945 412.245C239.944 411.46 241.181 411.037 242.452 411.046C242.646 411.047 242.838 411.009 243.017 410.936C243.197 410.862 243.36 410.754 243.497 410.617C243.634 410.48 243.744 410.318 243.818 410.139C243.893 409.96 243.932 409.769 243.932 409.575V402.835C235.32 403.394 228.485 410.535 228.485 419.234C228.482 422.952 229.752 426.559 232.083 429.456C235.022 431.818 238.681 433.103 242.452 433.099C251.571 433.099 258.991 425.726 258.991 416.664Z" fill="#1B1633"/>
</g>
<g filter="url(#filter5_d_13_540)">
<rect x="352" y="92" width="128" height="128" rx="24" fill="white"/>
</g>
<g clip-path="url(#clip5_13_540)">
<path d="M416 191.156C435.416 191.156 451.156 175.416 451.156 156C451.156 136.584 435.416 120.844 416 120.844C396.584 120.844 380.844 136.584 380.844 156C380.844 175.416 396.584 191.156 416 191.156Z" fill="#03A9F4"/>
<path opacity="0.49" d="M451.156 156C451.157 153.825 450.956 151.654 450.557 149.516L438.833 137.792C438.833 137.792 434.813 139.683 432.562 140.156C430.793 138.264 428.22 137.161 425.326 137.161C418.945 137.161 414.423 142.833 415.678 148.985C407.478 148.512 400.081 144.728 395.258 139.053C394.422 140.489 393.978 142.12 393.971 143.782C393.971 147.093 395.74 150.088 398.313 151.665C396.726 151.66 395.17 151.224 393.81 150.404C393.78 154.999 397.152 159.068 401.69 159.863C400.25 160.145 398.638 160.376 397.187 160.021C397.865 161.954 399.126 163.63 400.796 164.816C402.467 166.002 404.465 166.64 406.514 166.642C402.568 169.589 396.834 171.555 391.881 170.583L412.255 190.958C413.499 191.09 414.749 191.156 416 191.156C435.416 191.156 451.156 175.416 451.156 156Z" fill="url(#paint6_linear_13_540)"/>
<path fill-rule="evenodd" clip-rule="evenodd" d="M432.562 140.156C430.793 138.264 428.22 137.161 425.326 137.161C418.945 137.161 414.423 142.833 415.678 148.985C407.478 148.512 400.081 144.728 395.258 139.053C394.422 140.489 393.978 142.12 393.971 143.782C393.971 147.093 395.74 150.089 398.313 151.665C396.726 151.66 395.17 151.224 393.81 150.404C393.78 154.999 397.152 159.068 401.69 159.863C400.25 160.145 398.638 160.376 397.187 160.021C397.865 161.954 399.126 163.63 400.796 164.816C402.467 166.002 404.465 166.64 406.514 166.642C402.568 169.589 396.834 171.555 391.881 170.583C401.536 176.544 414.733 176.284 423.937 169.545C431.359 164.111 435.135 155.516 435.135 146.462C437.024 145.083 438.704 143.437 440.12 141.575C438.351 142.364 436.421 142.836 434.492 143.152C436.421 141.891 438.029 140.156 438.833 137.792C438.833 137.792 434.813 139.683 432.562 140.156Z" fill="white"/>
</g>
<g filter="url(#filter6_d_13_540)">
<rect x="352" y="260" width="128" height="128" rx="24" fill="white"/>
</g>
<g clip-path="url(#clip6_13_540)">
<path d="M416 359.156C435.416 359.156 451.156 343.416 451.156 324C451.156 304.584 435.416 288.844 416 288.844C396.584 288.844 380.844 304.584 380.844 324C380.844 343.416 396.584 359.156 416 359.156Z" fill="#005FAB"/>
<path opacity="0.49" d="M451.156 324C451.158 320.916 450.754 317.844 449.955 314.865L438.164 303.073C438.096 303.009 438.011 302.967 437.919 302.952C437.827 302.937 437.733 302.951 437.648 302.99C433.375 304.518 413.284 311.776 386.7 321.544C386.58 321.584 386.48 321.67 386.422 321.783C386.363 321.896 386.351 322.027 386.388 322.148L422.666 358.522C438.894 355.407 451.156 341.137 451.156 324Z" fill="url(#paint7_linear_13_540)"/>
<path fill-rule="evenodd" clip-rule="evenodd" d="M437.648 302.991C438.037 302.827 438.37 303.154 438.314 303.536L429.545 344.68C429.525 344.759 429.486 344.832 429.431 344.892C429.376 344.952 429.307 344.998 429.23 345.025C429.153 345.052 429.071 345.059 428.99 345.047C428.91 345.034 428.834 345.002 428.769 344.953L414.95 335.131L407.235 342.443C407.17 342.495 407.093 342.531 407.011 342.547C406.93 342.564 406.845 342.562 406.765 342.541C406.684 342.52 406.609 342.48 406.547 342.426C406.484 342.371 406.434 342.302 406.403 342.225L401.13 326.891L386.7 322.471C386.603 322.439 386.518 322.376 386.458 322.293C386.399 322.21 386.366 322.11 386.366 322.007C386.366 321.905 386.399 321.805 386.458 321.721C386.518 321.638 386.603 321.576 386.7 321.543C413.284 311.776 433.375 304.518 437.648 302.99L437.648 302.991ZM428.435 310.466C428.38 310.459 420.167 315.596 403.849 325.8L407.29 336.932L408.012 329.892C422.053 317.396 429.083 311.121 429.101 311.067C429.435 310.739 428.658 310.496 428.435 310.466Z" fill="white"/>
</g>
<defs>
<filter id="filter0_d_13_540" x="0" y="84" width="160" height="160" filterUnits="userSpaceOnUse" color-interpolation-filters="sRGB">
<feFlood flood-opacity="0" result="BackgroundImageFix"/>
<feColorMatrix in="SourceAlpha" type="matrix" values="0 0 0 0 0 0 0 0 0 0 0 0 0 0 0 0 0 0 127 0" result="hardAlpha"/>
<feOffset dy="8"/>
<feGaussianBlur stdDeviation="8"/>
<feColorMatrix type="matrix" values="0 0 0 0 0 0 0 0 0 0 0 0 0 0 0 0 0 0 0.06 0"/>
<feBlend mode="multiply" in2="BackgroundImageFix" result="effect1_dropShadow_13_540"/>
<feBlend mode="normal" in="SourceGraphic" in2="effect1_dropShadow_13_540" result="shape"/>
</filter>
<filter id="filter1_d_13_540" x="0" y="252" width="160" height="160" filterUnits="userSpaceOnUse" color-interpolation-filters="sRGB">
<feFlood flood-opacity="0" result="BackgroundImageFix"/>
<feColorMatrix in="SourceAlpha" type="matrix" values="0 0 0 0 0 0 0 0 0 0 0 0 0 0 0 0 0 0 127 0" result="hardAlpha"/>
<feOffset dy="8"/>
<feGaussianBlur stdDeviation="8"/>
<feColorMatrix type="matrix" values="0 0 0 0 0 0 0 0 0 0 0 0 0 0 0 0 0 0 0.06 0"/>
<feBlend mode="multiply" in2="BackgroundImageFix" result="effect1_dropShadow_13_540"/>
<feBlend mode="normal" in="SourceGraphic" in2="effect1_dropShadow_13_540" result="shape"/>
</filter>
<filter id="filter2_d_13_540" x="168" y="0" width="160" height="160" filterUnits="userSpaceOnUse" color-interpolation-filters="sRGB">
<feFlood flood-opacity="0" result="BackgroundImageFix"/>
<feColorMatrix in="SourceAlpha" type="matrix" values="0 0 0 0 0 0 0 0 0 0 0 0 0 0 0 0 0 0 127 0" result="hardAlpha"/>
<feOffset dy="8"/>
<feGaussianBlur stdDeviation="8"/>
<feColorMatrix type="matrix" values="0 0 0 0 0 0 0 0 0 0 0 0 0 0 0 0 0 0 0.06 0"/>
<feBlend mode="multiply" in2="BackgroundImageFix" result="effect1_dropShadow_13_540"/>
<feBlend mode="normal" in="SourceGraphic" in2="effect1_dropShadow_13_540" result="shape"/>
</filter>
<filter id="filter3_d_13_540" x="168" y="168" width="160" height="160" filterUnits="userSpaceOnUse" color-interpolation-filters="sRGB">
<feFlood flood-opacity="0" result="BackgroundImageFix"/>
<feColorMatrix in="SourceAlpha" type="matrix" values="0 0 0 0 0 0 0 0 0 0 0 0 0 0 0 0 0 0 127 0" result="hardAlpha"/>
<feOffset dy="8"/>
<feGaussianBlur stdDeviation="8"/>
<feColorMatrix type="matrix" values="0 0 0 0 0 0 0 0 0 0 0 0 0 0 0 0 0 0 0.06 0"/>
<feBlend mode="multiply" in2="BackgroundImageFix" result="effect1_dropShadow_13_540"/>
<feBlend mode="normal" in="SourceGraphic" in2="effect1_dropShadow_13_540" result="shape"/>
</filter>
<filter id="filter4_d_13_540" x="168" y="336" width="160" height="160" filterUnits="userSpaceOnUse" color-interpolation-filters="sRGB">
<feFlood flood-opacity="0" result="BackgroundImageFix"/>
<feColorMatrix in="SourceAlpha" type="matrix" values="0 0 0 0 0 0 0 0 0 0 0 0 0 0 0 0 0 0 127 0" result="hardAlpha"/>
<feOffset dy="8"/>
<feGaussianBlur stdDeviation="8"/>
<feColorMatrix type="matrix" values="0 0 0 0 0 0 0 0 0 0 0 0 0 0 0 0 0 0 0.06 0"/>
<feBlend mode="multiply" in2="BackgroundImageFix" result="effect1_dropShadow_13_540"/>
<feBlend mode="normal" in="SourceGraphic" in2="effect1_dropShadow_13_540" result="shape"/>
</filter>
<filter id="filter5_d_13_540" x="336" y="84" width="160" height="160" filterUnits="userSpaceOnUse" color-interpolation-filters="sRGB">
<feFlood flood-opacity="0" result="BackgroundImageFix"/>
<feColorMatrix in="SourceAlpha" type="matrix" values="0 0 0 0 0 0 0 0 0 0 0 0 0 0 0 0 0 0 127 0" result="hardAlpha"/>
<feOffset dy="8"/>
<feGaussianBlur stdDeviation="8"/>
<feColorMatrix type="matrix" values="0 0 0 0 0 0 0 0 0 0 0 0 0 0 0 0 0 0 0.06 0"/>
<feBlend mode="multiply" in2="BackgroundImageFix" result="effect1_dropShadow_13_540"/>
<feBlend mode="normal" in="SourceGraphic" in2="effect1_dropShadow_13_540" result="shape"/>
</filter>
<filter id="filter6_d_13_540" x="336" y="252" width="160" height="160" filterUnits="userSpaceOnUse" color-interpolation-filters="sRGB">
<feFlood flood-opacity="0" result="BackgroundImageFix"/>
<feColorMatrix in="SourceAlpha" type="matrix" values="0 0 0 0 0 0 0 0 0 0 0 0 0 0 0 0 0 0 127 0" result="hardAlpha"/>
<feOffset dy="8"/>
<feGaussianBlur stdDeviation="8"/>
<feColorMatrix type="matrix" values="0 0 0 0 0 0 0 0 0 0 0 0 0 0 0 0 0 0 0.06 0"/>
<feBlend mode="multiply" in2="BackgroundImageFix" result="effect1_dropShadow_13_540"/>
<feBlend mode="normal" in="SourceGraphic" in2="effect1_dropShadow_13_540" result="shape"/>
</filter>
<linearGradient id="paint0_linear_13_540" x1="55.1407" y1="180.859" x2="104.859" y2="131.141" gradientUnits="userSpaceOnUse">
<stop stop-color="#D6B43D"/>
<stop offset="0.051" stop-color="#DBA93F"/>
<stop offset="0.143" stop-color="#E88A45"/>
<stop offset="0.164" stop-color="#EB8246"/>
<stop offset="0.211" stop-color="#E7774D"/>
<stop offset="0.294" stop-color="#DD5860"/>
<stop offset="0.31" stop-color="#DB5164"/>
<stop offset="0.464" stop-color="#D2466C"/>
<stop offset="0.567" stop-color="#C93B73"/>
<stop offset="0.607" stop-color="#CB3179"/>
<stop offset="0.733" stop-color="#A23394"/>
<stop offset="0.856" stop-color="#7F35AB"/>
<stop offset="0.91" stop-color="#7D35AB"/>
<stop offset="0.94" stop-color="#7537AA"/>
<stop offset="0.964" stop-color="#673AA9"/>
<stop offset="0.985" stop-color="#533DA8"/>
<stop offset="1" stop-color="#4041A6"/>
</linearGradient>
<linearGradient id="paint1_linear_13_540" x1="61.9197" y1="137.92" x2="104.859" y2="180.859" gradientUnits="userSpaceOnUse">
<stop stop-color="#1D1D1B"/>
<stop offset="0.369" stop-color="#1D1D1B" stop-opacity="0.856"/>
<stop offset="0.75" stop-color="#1D1D1B" stop-opacity="0.429"/>
<stop offset="1" stop-color="#1D1D1B" stop-opacity="0"/>
</linearGradient>
<linearGradient id="paint2_linear_13_540" x1="70.2288" y1="310.746" x2="123.647" y2="364.165" gradientUnits="userSpaceOnUse">
<stop stop-color="#1D1D1B"/>
<stop offset="0.369" stop-color="#1D1D1B" stop-opacity="0.856"/>
<stop offset="0.75" stop-color="#1D1D1B" stop-opacity="0.429"/>
<stop offset="1" stop-color="#1D1D1B" stop-opacity="0"/>
</linearGradient>
<linearGradient id="paint3_linear_13_540" x1="229.368" y1="53.3891" x2="272.847" y2="96.8681" gradientUnits="userSpaceOnUse">
<stop stop-color="#1D1D1B"/>
<stop offset="0.369" stop-color="#1D1D1B" stop-opacity="0.856"/>
<stop offset="0.75" stop-color="#1D1D1B" stop-opacity="0.429"/>
<stop offset="1" stop-color="#1D1D1B" stop-opacity="0"/>
</linearGradient>
<linearGradient id="paint4_linear_13_540" x1="227.241" y1="228.5" x2="268.23" y2="269.489" gradientUnits="userSpaceOnUse">
<stop stop-color="#1D1D1B"/>
<stop offset="0.369" stop-color="#1D1D1B" stop-opacity="0.856"/>
<stop offset="0.75" stop-color="#1D1D1B" stop-opacity="0.429"/>
<stop offset="1" stop-color="#1D1D1B" stop-opacity="0"/>
</linearGradient>
<linearGradient id="paint5_linear_13_540" x1="235.373" y1="396.497" x2="272.297" y2="433.421" gradientUnits="userSpaceOnUse">
<stop stop-color="#1D1D1B"/>
<stop offset="0.369" stop-color="#1D1D1B" stop-opacity="0.856"/>
<stop offset="0.75" stop-color="#1D1D1B" stop-opacity="0.429"/>
<stop offset="1" stop-color="#1D1D1B" stop-opacity="0"/>
</linearGradient>
<linearGradient id="paint6_linear_13_540" x1="397.74" y1="136.57" x2="441.444" y2="180.275" gradientUnits="userSpaceOnUse">
<stop stop-color="#1D1D1B"/>
<stop offset="0.369" stop-color="#1D1D1B" stop-opacity="0.856"/>
<stop offset="0.75" stop-color="#1D1D1B" stop-opacity="0.429"/>
<stop offset="1" stop-color="#1D1D1B" stop-opacity="0"/>
</linearGradient>
<linearGradient id="paint7_linear_13_540" x1="403.895" y1="304.278" x2="444.667" y2="345.05" gradientUnits="userSpaceOnUse">
<stop stop-color="#1D1D1B"/>
<stop offset="0.369" stop-color="#1D1D1B" stop-opacity="0.856"/>
<stop offset="0.75" stop-color="#1D1D1B" stop-opacity="0.429"/>
<stop offset="1" stop-color="#1D1D1B" stop-opacity="0"/>
</linearGradient>
<clipPath id="clip0_13_540">
<rect width="72" height="72" fill="white" transform="translate(44 120)"/>
</clipPath>
<clipPath id="clip1_13_540">
<rect width="72" height="72" fill="white" transform="translate(44 288)"/>
</clipPath>
<clipPath id="clip2_13_540">
<rect width="72" height="72" fill="white" transform="translate(212 36)"/>
</clipPath>
<clipPath id="clip3_13_540">
<rect width="72" height="72" fill="white" transform="translate(212 204)"/>
</clipPath>
<clipPath id="clip4_13_540">
<rect width="72" height="72" fill="white" transform="translate(212 372)"/>
</clipPath>
<clipPath id="clip5_13_540">
<rect width="72" height="72" fill="white" transform="translate(380 120)"/>
</clipPath>
<clipPath id="clip6_13_540">
<rect width="72" height="72" fill="white" transform="translate(380 288)"/>
</clipPath>
</defs>
</svg>
