<svg width="271" height="56" viewBox="0 0 271 56" fill="none" xmlns="http://www.w3.org/2000/svg">
<g clip-path="url(#clip0_1_346)">
<rect width="56" height="56" rx="28" fill="url(#paint0_linear_1_346)"/>
<path d="M38.5056 21.9724V27.4812H24.3194V36.2074H35.1906V41.6187H24.3194V55.9999H17.4944V21.9724H38.5056Z" fill="white"/>
</g>
<path d="M65.45 39.27C63.85 39.27 62.41 38.92 61.13 38.22C59.85 37.5 58.84 36.49 58.1 35.19C57.38 33.89 57.02 32.39 57.02 30.69C57.02 28.99 57.39 27.49 58.13 26.19C58.89 24.89 59.92 23.89 61.22 23.19C62.52 22.47 63.97 22.11 65.57 22.11C67.17 22.11 68.62 22.47 69.92 23.19C71.22 23.89 72.24 24.89 72.98 26.19C73.74 27.49 74.12 28.99 74.12 30.69C74.12 32.39 73.73 33.89 72.95 35.19C72.19 36.49 71.15 37.5 69.83 38.22C68.53 38.92 67.07 39.27 65.45 39.27ZM65.45 35.61C66.21 35.61 66.92 35.43 67.58 35.07C68.26 34.69 68.8 34.13 69.2 33.39C69.6 32.65 69.8 31.75 69.8 30.69C69.8 29.11 69.38 27.9 68.54 27.06C67.72 26.2 66.71 25.77 65.51 25.77C64.31 25.77 63.3 26.2 62.48 27.06C61.68 27.9 61.28 29.11 61.28 30.69C61.28 32.27 61.67 33.49 62.45 34.35C63.25 35.19 64.25 35.61 65.45 35.61ZM82.0009 16.8V39H77.8009V16.8H82.0009ZM90.9505 16.8V39H86.7505V16.8H90.9505ZM103.08 39.27C101.48 39.27 100.04 38.92 98.7601 38.22C97.4801 37.5 96.4701 36.49 95.7301 35.19C95.0101 33.89 94.6501 32.39 94.6501 30.69C94.6501 28.99 95.0201 27.49 95.7601 26.19C96.5201 24.89 97.5501 23.89 98.8501 23.19C100.15 22.47 101.6 22.11 103.2 22.11C104.8 22.11 106.25 22.47 107.55 23.19C108.85 23.89 109.87 24.89 110.61 26.19C111.37 27.49 111.75 28.99 111.75 30.69C111.75 32.39 111.36 33.89 110.58 35.19C109.82 36.49 108.78 37.5 107.46 38.22C106.16 38.92 104.7 39.27 103.08 39.27ZM103.08 35.61C103.84 35.61 104.55 35.43 105.21 35.07C105.89 34.69 106.43 34.13 106.83 33.39C107.23 32.65 107.43 31.75 107.43 30.69C107.43 29.11 107.01 27.9 106.17 27.06C105.35 26.2 104.34 25.77 103.14 25.77C101.94 25.77 100.93 26.2 100.11 27.06C99.3101 27.9 98.9101 29.11 98.9101 30.69C98.9101 32.27 99.3001 33.49 100.08 34.35C100.88 35.19 101.88 35.61 103.08 35.61ZM138.471 22.38L133.611 39H129.081L126.051 27.39L123.021 39H118.461L113.571 22.38H117.831L120.771 35.04L123.951 22.38H128.391L131.511 35.01L134.451 22.38H138.471ZM156.793 30.33C156.793 30.93 156.753 31.47 156.673 31.95H144.523C144.623 33.15 145.043 34.09 145.783 34.77C146.523 35.45 147.433 35.79 148.513 35.79C150.073 35.79 151.183 35.12 151.843 33.78H156.373C155.893 35.38 154.973 36.7 153.613 37.74C152.253 38.76 150.583 39.27 148.603 39.27C147.003 39.27 145.563 38.92 144.283 38.22C143.023 37.5 142.033 36.49 141.313 35.19C140.613 33.89 140.263 32.39 140.263 30.69C140.263 28.97 140.613 27.46 141.313 26.16C142.013 24.86 142.993 23.86 144.253 23.16C145.513 22.46 146.963 22.11 148.603 22.11C150.183 22.11 151.593 22.45 152.833 23.13C154.093 23.81 155.063 24.78 155.743 26.04C156.443 27.28 156.793 28.71 156.793 30.33ZM152.443 29.13C152.423 28.05 152.033 27.19 151.273 26.55C150.513 25.89 149.583 25.56 148.483 25.56C147.443 25.56 146.563 25.88 145.843 26.52C145.143 27.14 144.713 28.01 144.553 29.13H152.443ZM164.659 24.96C165.199 24.08 165.899 23.39 166.759 22.89C167.639 22.39 168.639 22.14 169.759 22.14V26.55H168.649C167.329 26.55 166.329 26.86 165.649 27.48C164.989 28.1 164.659 29.18 164.659 30.72V39H160.459V22.38H164.659V24.96ZM179.548 39.27C178.188 39.27 176.968 39.03 175.888 38.55C174.808 38.05 173.948 37.38 173.308 36.54C172.688 35.7 172.348 34.77 172.288 33.75H176.518C176.598 34.39 176.908 34.92 177.448 35.34C178.008 35.76 178.698 35.97 179.518 35.97C180.318 35.97 180.938 35.81 181.378 35.49C181.838 35.17 182.068 34.76 182.068 34.26C182.068 33.72 181.788 33.32 181.228 33.06C180.688 32.78 179.818 32.48 178.618 32.16C177.378 31.86 176.358 31.55 175.558 31.23C174.778 30.91 174.098 30.42 173.518 29.76C172.958 29.1 172.678 28.21 172.678 27.09C172.678 26.17 172.938 25.33 173.458 24.57C173.998 23.81 174.758 23.21 175.738 22.77C176.738 22.33 177.908 22.11 179.248 22.11C181.228 22.11 182.808 22.61 183.988 23.61C185.168 24.59 185.818 25.92 185.938 27.6H181.918C181.858 26.94 181.578 26.42 181.078 26.04C180.598 25.64 179.948 25.44 179.128 25.44C178.368 25.44 177.778 25.58 177.358 25.86C176.958 26.14 176.758 26.53 176.758 27.03C176.758 27.59 177.038 28.02 177.598 28.32C178.158 28.6 179.028 28.89 180.208 29.19C181.408 29.49 182.398 29.8 183.178 30.12C183.958 30.44 184.628 30.94 185.188 31.62C185.768 32.28 186.068 33.16 186.088 34.26C186.088 35.22 185.818 36.08 185.278 36.84C184.758 37.6 183.998 38.2 182.998 38.64C182.018 39.06 180.868 39.27 179.548 39.27ZM195.026 25.83V33.87C195.026 34.43 195.156 34.84 195.416 35.1C195.696 35.34 196.156 35.46 196.796 35.46H198.746V39H196.106C192.566 39 190.796 37.28 190.796 33.84V25.83H188.816V22.38H190.796V18.27H195.026V22.38H198.746V25.83H195.026ZM218.056 22.38V39H213.826V36.9C213.286 37.62 212.576 38.19 211.696 38.61C210.836 39.01 209.896 39.21 208.876 39.21C207.576 39.21 206.426 38.94 205.426 38.4C204.426 37.84 203.636 37.03 203.056 35.97C202.496 34.89 202.216 33.61 202.216 32.13V22.38H206.416V31.53C206.416 32.85 206.746 33.87 207.406 34.59C208.066 35.29 208.966 35.64 210.106 35.64C211.266 35.64 212.176 35.29 212.836 34.59C213.496 33.87 213.826 32.85 213.826 31.53V22.38H218.056ZM221.72 30.63C221.72 28.95 222.05 27.46 222.71 26.16C223.39 24.86 224.31 23.86 225.47 23.16C226.63 22.46 227.92 22.11 229.34 22.11C230.42 22.11 231.45 22.35 232.43 22.83C233.41 23.29 234.19 23.91 234.77 24.69V16.8H239.03V39H234.77V36.54C234.25 37.36 233.52 38.02 232.58 38.52C231.64 39.02 230.55 39.27 229.31 39.27C227.91 39.27 226.63 38.91 225.47 38.19C224.31 37.47 223.39 36.46 222.71 35.16C222.05 33.84 221.72 32.33 221.72 30.63ZM234.8 30.69C234.8 29.67 234.6 28.8 234.2 28.08C233.8 27.34 233.26 26.78 232.58 26.4C231.9 26 231.17 25.8 230.39 25.8C229.61 25.8 228.89 25.99 228.23 26.37C227.57 26.75 227.03 27.31 226.61 28.05C226.21 28.77 226.01 29.63 226.01 30.63C226.01 31.63 226.21 32.51 226.61 33.27C227.03 34.01 227.57 34.58 228.23 34.98C228.91 35.38 229.63 35.58 230.39 35.58C231.17 35.58 231.9 35.39 232.58 35.01C233.26 34.61 233.8 34.05 234.2 33.33C234.6 32.59 234.8 31.71 234.8 30.69ZM245.863 20.4C245.123 20.4 244.503 20.17 244.003 19.71C243.523 19.23 243.283 18.64 243.283 17.94C243.283 17.24 243.523 16.66 244.003 16.2C244.503 15.72 245.123 15.48 245.863 15.48C246.603 15.48 247.213 15.72 247.693 16.2C248.193 16.66 248.443 17.24 248.443 17.94C248.443 18.64 248.193 19.23 247.693 19.71C247.213 20.17 246.603 20.4 245.863 20.4ZM247.933 22.38V39H243.733V22.38H247.933ZM260.062 39.27C258.462 39.27 257.022 38.92 255.742 38.22C254.462 37.5 253.452 36.49 252.712 35.19C251.992 33.89 251.632 32.39 251.632 30.69C251.632 28.99 252.002 27.49 252.742 26.19C253.502 24.89 254.532 23.89 255.832 23.19C257.132 22.47 258.582 22.11 260.182 22.11C261.782 22.11 263.232 22.47 264.532 23.19C265.832 23.89 266.852 24.89 267.592 26.19C268.352 27.49 268.732 28.99 268.732 30.69C268.732 32.39 268.342 33.89 267.562 35.19C266.802 36.49 265.762 37.5 264.442 38.22C263.142 38.92 261.682 39.27 260.062 39.27ZM260.062 35.61C260.822 35.61 261.532 35.43 262.192 35.07C262.872 34.69 263.412 34.13 263.812 33.39C264.212 32.65 264.412 31.75 264.412 30.69C264.412 29.11 263.992 27.9 263.152 27.06C262.332 26.2 261.322 25.77 260.122 25.77C258.922 25.77 257.912 26.2 257.092 27.06C256.292 27.9 255.892 29.11 255.892 30.69C255.892 32.27 256.282 33.49 257.062 34.35C257.862 35.19 258.862 35.61 260.062 35.61Z" fill="url(#paint1_linear_1_346)"/>
<defs>
<linearGradient id="paint0_linear_1_346" x1="8.20098" y1="47.799" x2="47.799" y2="8.20098" gradientUnits="userSpaceOnUse">
<stop stop-color="#D6B43D"/>
<stop offset="0.051" stop-color="#DBA93F"/>
<stop offset="0.143" stop-color="#E88A45"/>
<stop offset="0.164" stop-color="#EB8246"/>
<stop offset="0.211" stop-color="#E7774D"/>
<stop offset="0.294" stop-color="#DD5860"/>
<stop offset="0.31" stop-color="#DB5164"/>
<stop offset="0.464" stop-color="#D2466C"/>
<stop offset="0.567" stop-color="#C93B73"/>
<stop offset="0.607" stop-color="#CB3179"/>
<stop offset="0.733" stop-color="#A23394"/>
<stop offset="0.856" stop-color="#7F35AB"/>
<stop offset="0.91" stop-color="#7D35AB"/>
<stop offset="0.94" stop-color="#7537AA"/>
<stop offset="0.964" stop-color="#673AA9"/>
<stop offset="0.985" stop-color="#533DA8"/>
<stop offset="1" stop-color="#4041A6"/>
</linearGradient>
<linearGradient id="paint1_linear_1_346" x1="87.3394" y1="42.1422" x2="97.5561" y2="-12.5168" gradientUnits="userSpaceOnUse">
<stop stop-color="#D6B43D"/>
<stop offset="0.051" stop-color="#DBA93F"/>
<stop offset="0.143" stop-color="#E88A45"/>
<stop offset="0.164" stop-color="#EB8246"/>
<stop offset="0.211" stop-color="#E7774D"/>
<stop offset="0.294" stop-color="#DD5860"/>
<stop offset="0.31" stop-color="#DB5164"/>
<stop offset="0.464" stop-color="#D2466C"/>
<stop offset="0.567" stop-color="#C93B73"/>
<stop offset="0.607" stop-color="#CB3179"/>
<stop offset="0.733" stop-color="#A23394"/>
<stop offset="0.856" stop-color="#7F35AB"/>
<stop offset="0.91" stop-color="#7D35AB"/>
<stop offset="0.94" stop-color="#7537AA"/>
<stop offset="0.964" stop-color="#673AA9"/>
<stop offset="0.985" stop-color="#533DA8"/>
<stop offset="1" stop-color="#4041A6"/>
</linearGradient>
<clipPath id="clip0_1_346">
<rect width="56" height="56" fill="white"/>
</clipPath>
</defs>
</svg>
